<svg xmlns="http://www.w3.org/2000/svg" version="1.1" xmlns:xlink="http://www.w3.org/1999/xlink" xmlns:svgjs="http://svgjs.dev/svgjs" width="2000" height="328" viewBox="0 0 2000 328"><g transform="matrix(1,0,0,1,-1.2121212121212466,0.8487691688592065)"><svg viewBox="0 0 396 65" data-background-color="#ffffff" preserveAspectRatio="xMidYMid meet" height="328" width="2000" xmlns="http://www.w3.org/2000/svg" xmlns:xlink="http://www.w3.org/1999/xlink"><g id="tight-bounds" transform="matrix(1,0,0,1,0.2400000000000091,-0.16820120724344179)"><svg viewBox="0 0 395.52 65.33640241448691" height="65.33640241448691" width="395.52"><g><svg viewBox="0 0 395.52 65.33640241448691" height="65.33640241448691" width="395.52"><g><svg viewBox="0 0 395.52 65.33640241448691" height="65.33640241448691" width="395.52"><g id="textblocktransform"><svg viewBox="0 0 395.52 65.33640241448691" height="65.33640241448691" width="395.52" id="textblock"><g><svg viewBox="0 0 395.52 65.33640241448691" height="65.33640241448691" width="395.52"><g transform="matrix(1,0,0,1,0,0)"><svg width="395.52" viewBox="3.5599999999999996 -39.84 242.66 40.080000000000005" height="65.33640241448691" data-palette-color="#000000"><path d="M3.56-19.68L3.56-19.68Q3.56-21.53 4.25-23.02 4.93-24.51 6.15-25.56 7.37-26.61 8.91-27.22 10.45-27.83 12.11-27.98L12.11-27.98 12.11-23.1Q10.84-22.85 10.13-22.07 9.42-21.29 9.42-19.87L9.42-19.87Q9.42-18.7 10.18-17.99 10.94-17.29 12.11-16.75L12.11-16.75 12.11-11.52Q11.28-11.77 10.42-12.08 9.57-12.4 8.74-12.79L8.74-12.79Q6.15-14.16 4.86-15.67 3.56-17.19 3.56-19.68ZM21.78-25.78L19.87-21.73Q18.55-22.41 17.07-22.75 15.58-23.1 14.11-23.19L14.11-23.19 14.11-28.03Q16.31-27.93 18.16-27.42 20.02-26.9 21.78-25.78L21.78-25.78ZM3.66-2.2L6.15-6.15Q7.13-5.47 8.47-4.88 9.81-4.3 11.87-4.3L11.87-4.3 12.11-4.3 12.11 0.24Q10.89 0.24 9.86 0.17 8.84 0.1 7.84-0.17 6.84-0.44 5.81-0.93 4.79-1.42 3.66-2.2L3.66-2.2ZM14.11-10.79L14.11-15.97Q15.58-15.48 17.09-14.89 18.6-14.31 19.85-13.43 21.09-12.55 21.9-11.25 22.71-9.96 22.71-8.01L22.71-8.01Q22.71-6.1 22.02-4.69 21.34-3.27 20.19-2.25 19.04-1.22 17.48-0.63 15.92-0.05 14.11 0.15L14.11 0.15 14.11-4.49Q15.77-4.79 16.67-5.54 17.58-6.3 17.58-7.57L17.58-7.57Q17.58-8.84 16.58-9.55 15.58-10.25 14.11-10.79L14.11-10.79ZM36.28-27.54L36.28 0 30.32 0 30.32-27.54 36.28-27.54ZM36.81-36.33L36.81-36.33Q36.81-34.86 35.79-33.86 34.76-32.86 33.3-32.86L33.3-32.86Q31.83-32.86 30.83-33.89 29.83-34.91 29.83-36.33L29.83-36.33Q29.83-37.79 30.86-38.82 31.88-39.84 33.3-39.84L33.3-39.84Q34.76-39.84 35.79-38.82 36.81-37.79 36.81-36.33ZM50.43-37.94L50.43-8.4Q50.43-6.74 50.87-5.79 51.31-4.83 52.09-4.37 52.88-3.91 53.88-3.76 54.88-3.61 56.05-3.61L56.05-3.61 56.05 0Q55.41 0.1 54.73 0.15L54.73 0.15Q54.19 0.2 53.46 0.22 52.73 0.24 52 0.24L52 0.24Q51.26 0.24 50.53 0.2 49.8 0.15 49.21 0.05L49.21 0.05Q47.55-0.29 46.63-1.42 45.7-2.54 45.21-3.93 44.72-5.32 44.6-6.64 44.48-7.96 44.48-8.69L44.48-8.69 44.48-9.28 44.48-37.94 50.43-37.94ZM75.09-23.19L75.09-27.78Q77.73-27.54 79.85-26.37 81.97-25.2 83.49-23.34 85-21.48 85.81-19.09 86.61-16.7 86.61-14.11L86.61-14.11Q86.61-12.94 86.47-11.77L86.47-11.77 69.72-11.77 69.72-16.06 81-16.06Q81-17.33 80.58-18.51 80.17-19.68 79.36-20.68 78.56-21.68 77.48-22.36 76.41-23.05 75.09-23.19L75.09-23.19ZM74.89-4.59L74.89-4.59Q75.43-4.59 76.24-4.71 77.04-4.83 77.95-5.15 78.85-5.47 79.75-5.96 80.66-6.45 81.34-7.13L81.34-7.13 83.49-3.86Q81.88-1.86 79.73-0.83 77.58 0.2 74.26 0.2L74.26 0.2Q71.57 0.2 69.23-0.9 66.89-2 65.23-3.91 63.57-5.81 62.59-8.35 61.61-10.89 61.61-13.82L61.61-13.82Q61.61-16.6 62.52-19.09 63.42-21.58 64.98-23.46 66.55-25.34 68.62-26.51 70.7-27.69 73.09-27.83L73.09-27.83 73.09-23.14Q71.28-22.8 70.11-21.68 68.94-20.56 68.28-19.12 67.62-17.68 67.35-16.16 67.08-14.65 67.08-13.57L67.08-13.57Q67.08-11.67 67.55-10.03 68.01-8.4 68.99-7.2 69.96-6.01 71.4-5.3 72.84-4.59 74.89-4.59ZM94.72-27.54L99.99-27.54 100.62-24.76 100.62 0 94.72 0 94.72-27.54ZM115.22-24.51L115.22-24.51Q116.05-23.68 116.52-22.58 116.98-21.48 117.2-20.29 117.42-19.09 117.47-17.87 117.52-16.65 117.52-15.48L117.52-15.48 117.52-0.98 117.52 0 111.56 0 111.56-14.99Q111.56-16.65 111.42-18.16 111.27-19.68 110.73-20.85 110.2-22.02 109.27-22.68 108.34-23.34 106.68-23.34L106.68-23.34Q106-23.34 104.85-23.12 103.7-22.9 102.63-22.41L102.63-22.41 102.63-26.17Q103.95-26.86 105.48-27.34 107.02-27.83 108.49-27.83L108.49-27.83Q110.68-27.83 112.2-26.93 113.71-26.03 115.22-24.51ZM133.53-23.54L133.53-8.35Q133.53-6.69 133.97-5.76 134.41-4.83 135.22-4.35 136.02-3.86 137.02-3.74 138.02-3.61 139.15-3.61L139.15-3.61 139.15 0Q138.51 0.1 137.88 0.15L137.88 0.15Q137.34 0.2 136.58 0.22 135.83 0.24 135.09 0.24L135.09 0.24Q134.36 0.24 133.61 0.2 132.85 0.15 132.31 0.05L132.31 0.05Q130.65-0.24 129.72-1.39 128.8-2.54 128.33-3.93 127.87-5.32 127.75-6.64 127.62-7.96 127.62-8.69L127.62-8.69 127.62-23.54 124.01-23.54 124.01-27.54 127.62-27.54 127.62-35.35 133.53-35.35 133.53-27.54 137.93-27.54 137.93-23.54 133.53-23.54ZM146.08-27.54L151.4-27.54 152.04-24.71 152.04 0 146.08 0 146.08-27.54ZM174.45-27.83L174.45-27.83Q176.11-27.83 177.57-27.17 179.04-26.51 180.14-25.29 181.24-24.07 181.85-22.39 182.46-20.7 182.46-18.75L182.46-18.75 182.46 0 176.6 0 176.6-14.99Q176.6-16.65 176.57-18.14 176.55-19.63 176.25-20.8 175.96-21.97 175.3-22.63 174.64-23.29 173.28-23.29L173.28-23.29Q172.93-23.29 171.81-23.14 170.69-23 169.22-22.31L169.22-22.31 169.22-26.17Q170.54-26.95 171.91-27.39 173.28-27.83 174.45-27.83ZM166-24.07L166-24.07Q166.59-23.19 166.86-22.19 167.12-21.19 167.2-20.12 167.27-19.04 167.25-17.9 167.22-16.75 167.22-15.48L167.22-15.48 167.22 0 161.31 0 161.31-14.99Q161.31-16.65 161.31-18.14 161.31-19.63 161.02-20.8 160.73-21.97 160.04-22.63 159.36-23.29 158.04-23.29L158.04-23.29Q157.46-23.29 156.31-23.07 155.16-22.85 154.04-22.31L154.04-22.31 154.04-26.17Q155.21-26.86 156.55-27.29 157.9-27.73 159.21-27.73L159.21-27.73Q161.46-27.73 163-26.81 164.54-25.88 166-24.07ZM203.64-23.19L203.64-27.78Q206.28-27.54 208.41-26.37 210.53-25.2 212.04-23.34 213.56-21.48 214.36-19.09 215.17-16.7 215.17-14.11L215.17-14.11Q215.17-12.94 215.02-11.77L215.02-11.77 198.27-11.77 198.27-16.06 209.55-16.06Q209.55-17.33 209.14-18.51 208.72-19.68 207.92-20.68 207.11-21.68 206.04-22.36 204.96-23.05 203.64-23.19L203.64-23.19ZM203.45-4.59L203.45-4.59Q203.99-4.59 204.79-4.71 205.6-4.83 206.5-5.15 207.4-5.47 208.31-5.96 209.21-6.45 209.89-7.13L209.89-7.13 212.04-3.86Q210.43-1.86 208.28-0.83 206.13 0.2 202.81 0.2L202.81 0.2Q200.13 0.2 197.79-0.9 195.44-2 193.78-3.91 192.12-5.81 191.14-8.35 190.17-10.89 190.17-13.82L190.17-13.82Q190.17-16.6 191.07-19.09 191.97-21.58 193.54-23.46 195.1-25.34 197.17-26.51 199.25-27.69 201.64-27.83L201.64-27.83 201.64-23.14Q199.84-22.8 198.66-21.68 197.49-20.56 196.83-19.12 196.17-17.68 195.91-16.16 195.64-14.65 195.64-13.57L195.64-13.57Q195.64-11.67 196.1-10.03 196.56-8.4 197.54-7.2 198.52-6.01 199.96-5.3 201.4-4.59 203.45-4.59ZM240.26-37.94L246.22-37.94 246.22 0 240.61 0 240.26-3.27 240.26-37.94ZM221.51-14.16L221.51-14.16Q221.51-17.97 222.56-20.56 223.61-23.14 225.27-24.76 226.93-26.37 228.96-27.08 230.99-27.78 232.94-27.78L232.94-27.78Q234.45-27.78 235.82-27.44 237.19-27.1 238.26-26.46L238.26-26.46 238.26-21.29Q237.43-22.17 236.41-22.71 235.38-23.24 234.11-23.24L234.11-23.24Q232.6-23.24 231.43-22.49 230.25-21.73 229.45-20.41 228.64-19.09 228.2-17.38 227.76-15.67 227.76-13.72L227.76-13.72Q227.76-11.77 228.25-10.08 228.74-8.4 229.57-7.13 230.4-5.86 231.6-5.13 232.79-4.39 234.21-4.39L234.21-4.39Q236.6-4.39 238.26-6.3L238.26-6.3 238.26-1.22Q237.09-0.59 235.55-0.17 234.01 0.24 232.3 0.24L232.3 0.24Q230.35 0.24 228.47-0.46 226.59-1.17 225.13-2.78L225.13-2.78Q223.27-4.88 222.39-7.98 221.51-11.08 221.51-14.16Z" opacity="1" transform="matrix(1,0,0,1,0,0)" fill="#fff" class="wordmark-text-0" data-fill-palette-color="primary" id="text-0"></path></svg></g></svg></g></svg></g></svg></g></svg></g><defs></defs></svg><rect width="395.52" height="65.33640241448691" fill="none" stroke="none" visibility="hidden"></rect></g></svg></g></svg>